<mxfile host="app.diagrams.net" agent="Mozilla/5.0 (Windows NT 10.0; Win64; x64) AppleWebKit/537.36 (KHTML, like Gecko) Chrome/126.0.0.0 YaBrowser/24.7.0.0 Safari/537.36" version="24.7.16">
  <diagram name="Страница — 1" id="6Nax0CokRodalmGPORA3">
    <mxGraphModel dx="1434" dy="791" grid="1" gridSize="10" guides="1" tooltips="1" connect="1" arrows="1" fold="1" page="1" pageScale="1" pageWidth="827" pageHeight="1169" math="0" shadow="0">
      <root>
        <mxCell id="0" />
        <mxCell id="1" parent="0" />
        <mxCell id="y_89zZIcyCY0LAJHLkmE-1" value="" style="rounded=0;whiteSpace=wrap;html=1;" parent="1" vertex="1">
          <mxGeometry x="30" y="10" width="780" height="490" as="geometry" />
        </mxCell>
        <mxCell id="YA6uBwkZ4y1gAaG25V1V-2" value="" style="rounded=0;whiteSpace=wrap;html=1;" parent="1" vertex="1">
          <mxGeometry x="614.73" y="240" width="160" height="210" as="geometry" />
        </mxCell>
        <mxCell id="YA6uBwkZ4y1gAaG25V1V-3" value="&lt;span style=&quot;font-size: 16px;&quot;&gt;&lt;b&gt;VulnScanC&lt;/b&gt;&lt;/span&gt;" style="text;html=1;align=center;verticalAlign=middle;whiteSpace=wrap;rounded=0;" parent="1" vertex="1">
          <mxGeometry x="624.73" y="250" width="140" height="30" as="geometry" />
        </mxCell>
        <mxCell id="YA6uBwkZ4y1gAaG25V1V-5" value="" style="rounded=0;whiteSpace=wrap;html=1;" parent="1" vertex="1">
          <mxGeometry x="629.73" y="290" width="130" height="150" as="geometry" />
        </mxCell>
        <mxCell id="YA6uBwkZ4y1gAaG25V1V-7" value="&lt;font style=&quot;font-size: 16px;&quot;&gt;API&lt;/font&gt;" style="text;html=1;align=center;verticalAlign=middle;whiteSpace=wrap;rounded=0;" parent="1" vertex="1">
          <mxGeometry x="624.73" y="290" width="140" height="30" as="geometry" />
        </mxCell>
        <mxCell id="YA6uBwkZ4y1gAaG25V1V-8" value="" style="shape=table;startSize=0;container=1;collapsible=0;childLayout=tableLayout;" parent="1" vertex="1">
          <mxGeometry x="639.73" y="330" width="110" height="90" as="geometry" />
        </mxCell>
        <mxCell id="YA6uBwkZ4y1gAaG25V1V-9" value="" style="shape=tableRow;horizontal=0;startSize=0;swimlaneHead=0;swimlaneBody=0;strokeColor=inherit;top=0;left=0;bottom=0;right=0;collapsible=0;dropTarget=0;fillColor=none;points=[[0,0.5],[1,0.5]];portConstraint=eastwest;" parent="YA6uBwkZ4y1gAaG25V1V-8" vertex="1">
          <mxGeometry width="110" height="30" as="geometry" />
        </mxCell>
        <mxCell id="YA6uBwkZ4y1gAaG25V1V-10" value="/binary" style="shape=partialRectangle;html=1;whiteSpace=wrap;connectable=0;strokeColor=inherit;overflow=hidden;fillColor=none;top=0;left=0;bottom=0;right=0;pointerEvents=1;" parent="YA6uBwkZ4y1gAaG25V1V-9" vertex="1">
          <mxGeometry width="110" height="30" as="geometry">
            <mxRectangle width="110" height="30" as="alternateBounds" />
          </mxGeometry>
        </mxCell>
        <mxCell id="YA6uBwkZ4y1gAaG25V1V-11" value="" style="shape=tableRow;horizontal=0;startSize=0;swimlaneHead=0;swimlaneBody=0;strokeColor=inherit;top=0;left=0;bottom=0;right=0;collapsible=0;dropTarget=0;fillColor=none;points=[[0,0.5],[1,0.5]];portConstraint=eastwest;" parent="YA6uBwkZ4y1gAaG25V1V-8" vertex="1">
          <mxGeometry y="30" width="110" height="30" as="geometry" />
        </mxCell>
        <mxCell id="YA6uBwkZ4y1gAaG25V1V-12" value="/search_data" style="shape=partialRectangle;html=1;whiteSpace=wrap;connectable=0;strokeColor=inherit;overflow=hidden;fillColor=none;top=0;left=0;bottom=0;right=0;pointerEvents=1;" parent="YA6uBwkZ4y1gAaG25V1V-11" vertex="1">
          <mxGeometry width="110" height="30" as="geometry">
            <mxRectangle width="110" height="30" as="alternateBounds" />
          </mxGeometry>
        </mxCell>
        <mxCell id="YA6uBwkZ4y1gAaG25V1V-13" style="shape=tableRow;horizontal=0;startSize=0;swimlaneHead=0;swimlaneBody=0;strokeColor=inherit;top=0;left=0;bottom=0;right=0;collapsible=0;dropTarget=0;fillColor=none;points=[[0,0.5],[1,0.5]];portConstraint=eastwest;" parent="YA6uBwkZ4y1gAaG25V1V-8" vertex="1">
          <mxGeometry y="60" width="110" height="30" as="geometry" />
        </mxCell>
        <mxCell id="YA6uBwkZ4y1gAaG25V1V-14" value="/ui_endpoints..." style="shape=partialRectangle;html=1;whiteSpace=wrap;connectable=0;strokeColor=inherit;overflow=hidden;fillColor=none;top=0;left=0;bottom=0;right=0;pointerEvents=1;" parent="YA6uBwkZ4y1gAaG25V1V-13" vertex="1">
          <mxGeometry width="110" height="30" as="geometry">
            <mxRectangle width="110" height="30" as="alternateBounds" />
          </mxGeometry>
        </mxCell>
        <mxCell id="YA6uBwkZ4y1gAaG25V1V-15" value="" style="rounded=0;whiteSpace=wrap;html=1;" parent="1" vertex="1">
          <mxGeometry x="599.73" y="70" width="190" height="90" as="geometry" />
        </mxCell>
        <mxCell id="YA6uBwkZ4y1gAaG25V1V-16" value="&lt;div style=&quot;text-align: center;&quot;&gt;&lt;span style=&quot;background-color: initial; font-size: 16px;&quot;&gt;&lt;b&gt;GitLab&lt;/b&gt;&lt;/span&gt;&lt;/div&gt;" style="text;whiteSpace=wrap;html=1;" parent="1" vertex="1">
          <mxGeometry x="664.73" y="80" width="60" height="40" as="geometry" />
        </mxCell>
        <mxCell id="YA6uBwkZ4y1gAaG25V1V-19" value="" style="rounded=0;whiteSpace=wrap;html=1;" parent="1" vertex="1">
          <mxGeometry x="220" y="60" width="220" height="420" as="geometry" />
        </mxCell>
        <mxCell id="YA6uBwkZ4y1gAaG25V1V-18" value="&lt;div style=&quot;text-align: center;&quot;&gt;&lt;span style=&quot;font-size: 16px;&quot;&gt;&lt;b&gt;Build Server&lt;/b&gt;&lt;/span&gt;&lt;/div&gt;" style="text;whiteSpace=wrap;html=1;" parent="1" vertex="1">
          <mxGeometry x="280" y="70" width="110" height="40" as="geometry" />
        </mxCell>
        <mxCell id="YA6uBwkZ4y1gAaG25V1V-20" value="" style="rounded=0;whiteSpace=wrap;html=1;" parent="1" vertex="1">
          <mxGeometry x="242.5" y="100" width="175" height="370" as="geometry" />
        </mxCell>
        <mxCell id="YA6uBwkZ4y1gAaG25V1V-21" value="&lt;span style=&quot;color: rgb(0, 0, 0); font-family: Helvetica; font-size: 16px; font-style: normal; font-variant-ligatures: normal; font-variant-caps: normal; font-weight: 400; letter-spacing: normal; orphans: 2; text-align: center; text-indent: 0px; text-transform: none; widows: 2; word-spacing: 0px; -webkit-text-stroke-width: 0px; white-space: normal; background-color: rgb(251, 251, 251); text-decoration-thickness: initial; text-decoration-style: initial; text-decoration-color: initial; display: inline !important; float: none;&quot;&gt;GitLab Runner&lt;/span&gt;" style="text;whiteSpace=wrap;html=1;" parent="1" vertex="1">
          <mxGeometry x="270" y="105" width="130" height="40" as="geometry" />
        </mxCell>
        <mxCell id="YA6uBwkZ4y1gAaG25V1V-23" value="pipeline" style="rounded=0;whiteSpace=wrap;html=1;" parent="1" vertex="1">
          <mxGeometry x="617.23" y="110" width="155" height="30" as="geometry" />
        </mxCell>
        <mxCell id="YA6uBwkZ4y1gAaG25V1V-27" style="edgeStyle=orthogonalEdgeStyle;rounded=0;orthogonalLoop=1;jettySize=auto;html=1;exitX=0.5;exitY=1;exitDx=0;exitDy=0;" parent="1" source="YA6uBwkZ4y1gAaG25V1V-15" target="YA6uBwkZ4y1gAaG25V1V-15" edge="1">
          <mxGeometry relative="1" as="geometry" />
        </mxCell>
        <mxCell id="YA6uBwkZ4y1gAaG25V1V-28" value="" style="endArrow=classic;html=1;rounded=0;exitX=0;exitY=0.5;exitDx=0;exitDy=0;entryX=0.997;entryY=0.11;entryDx=0;entryDy=0;entryPerimeter=0;" parent="1" source="YA6uBwkZ4y1gAaG25V1V-23" target="YA6uBwkZ4y1gAaG25V1V-20" edge="1">
          <mxGeometry width="50" height="50" relative="1" as="geometry">
            <mxPoint x="485" y="140" as="sourcePoint" />
            <mxPoint x="290" y="140" as="targetPoint" />
          </mxGeometry>
        </mxCell>
        <mxCell id="YA6uBwkZ4y1gAaG25V1V-29" value="component_analyze_stage" style="edgeLabel;html=1;align=center;verticalAlign=middle;resizable=0;points=[];" parent="YA6uBwkZ4y1gAaG25V1V-28" vertex="1" connectable="0">
          <mxGeometry x="0.2054" relative="1" as="geometry">
            <mxPoint x="21" as="offset" />
          </mxGeometry>
        </mxCell>
        <mxCell id="YA6uBwkZ4y1gAaG25V1V-35" style="edgeStyle=orthogonalEdgeStyle;rounded=0;orthogonalLoop=1;jettySize=auto;html=1;exitX=0.5;exitY=1;exitDx=0;exitDy=0;entryX=0.5;entryY=0;entryDx=0;entryDy=0;" parent="1" source="YA6uBwkZ4y1gAaG25V1V-30" target="YA6uBwkZ4y1gAaG25V1V-31" edge="1">
          <mxGeometry relative="1" as="geometry" />
        </mxCell>
        <mxCell id="YA6uBwkZ4y1gAaG25V1V-30" value="get_bin&lt;span style=&quot;color: rgba(0, 0, 0, 0); font-family: monospace; font-size: 0px; text-align: start; text-wrap: nowrap;&quot;&gt;%3CmxGraphModel%3E%3Croot%3E%3CmxCell%20id%3D%220%22%2F%3E%3CmxCell%20id%3D%221%22%20parent%3D%220%22%2F%3E%3CmxCell%20id%3D%222%22%20value%3D%22%26lt%3Bspan%20style%3D%26quot%3Bcolor%3A%20rgb(0%2C%200%2C%200)%3B%20font-family%3A%20Helvetica%3B%20font-size%3A%2016px%3B%20font-style%3A%20normal%3B%20font-variant-ligatures%3A%20normal%3B%20font-variant-caps%3A%20normal%3B%20font-weight%3A%20400%3B%20letter-spacing%3A%20normal%3B%20orphans%3A%202%3B%20text-align%3A%20center%3B%20text-indent%3A%200px%3B%20text-transform%3A%20none%3B%20widows%3A%202%3B%20word-spacing%3A%200px%3B%20-webkit-text-stroke-width%3A%200px%3B%20white-space%3A%20normal%3B%20background-color%3A%20rgb(251%2C%20251%2C%20251)%3B%20text-decoration-thickness%3A%20initial%3B%20text-decoration-style%3A%20initial%3B%20text-decoration-color%3A%20initial%3B%20display%3A%20inline%20!important%3B%20float%3A%20none%3B%26quot%3B%26gt%3Bproject%26lt%3B%2Fspan%26gt%3B%22%20style%3D%22text%3BwhiteSpace%3Dwrap%3Bhtml%3D1%3B%22%20vertex%3D%221%22%20parent%3D%221%22%3E%3CmxGeometry%20x%3D%22495%22%20y%3D%22120%22%20width%3D%22130%22%20height%3D%2240%22%20as%3D%22geometry%22%2F%3E%3C%2FmxCell%3E%3C%2Froot%3E%3C%2FmxGraphModel%3E&lt;/span&gt;" style="rounded=0;whiteSpace=wrap;html=1;" parent="1" vertex="1">
          <mxGeometry x="250" y="150" width="160" height="30" as="geometry" />
        </mxCell>
        <mxCell id="YA6uBwkZ4y1gAaG25V1V-57" style="edgeStyle=orthogonalEdgeStyle;rounded=0;orthogonalLoop=1;jettySize=auto;html=1;exitX=0.5;exitY=1;exitDx=0;exitDy=0;entryX=0.5;entryY=0;entryDx=0;entryDy=0;" parent="1" source="YA6uBwkZ4y1gAaG25V1V-31" target="YA6uBwkZ4y1gAaG25V1V-32" edge="1">
          <mxGeometry relative="1" as="geometry" />
        </mxCell>
        <mxCell id="YA6uBwkZ4y1gAaG25V1V-31" value="" style="rounded=0;whiteSpace=wrap;html=1;" parent="1" vertex="1">
          <mxGeometry x="255" y="210" width="145" height="190" as="geometry" />
        </mxCell>
        <mxCell id="YA6uBwkZ4y1gAaG25V1V-32" value="complete_stage" style="rounded=0;whiteSpace=wrap;html=1;" parent="1" vertex="1">
          <mxGeometry x="265" y="420" width="120" height="30" as="geometry" />
        </mxCell>
        <mxCell id="YA6uBwkZ4y1gAaG25V1V-39" value="run_bin" style="text;html=1;align=center;verticalAlign=middle;whiteSpace=wrap;rounded=0;" parent="1" vertex="1">
          <mxGeometry x="297.5" y="210" width="60" height="30" as="geometry" />
        </mxCell>
        <mxCell id="YA6uBwkZ4y1gAaG25V1V-51" style="edgeStyle=orthogonalEdgeStyle;rounded=0;orthogonalLoop=1;jettySize=auto;html=1;exitX=0.5;exitY=1;exitDx=0;exitDy=0;entryX=0.5;entryY=0;entryDx=0;entryDy=0;" parent="1" source="YA6uBwkZ4y1gAaG25V1V-40" target="YA6uBwkZ4y1gAaG25V1V-43" edge="1">
          <mxGeometry relative="1" as="geometry" />
        </mxCell>
        <mxCell id="YA6uBwkZ4y1gAaG25V1V-40" value="find_dependencies" style="rounded=0;whiteSpace=wrap;html=1;" parent="1" vertex="1">
          <mxGeometry x="265" y="235" width="125" height="30" as="geometry" />
        </mxCell>
        <mxCell id="YA6uBwkZ4y1gAaG25V1V-50" style="edgeStyle=orthogonalEdgeStyle;rounded=0;orthogonalLoop=1;jettySize=auto;html=1;exitX=0.5;exitY=1;exitDx=0;exitDy=0;entryX=0.5;entryY=0;entryDx=0;entryDy=0;" parent="1" source="YA6uBwkZ4y1gAaG25V1V-43" target="YA6uBwkZ4y1gAaG25V1V-44" edge="1">
          <mxGeometry relative="1" as="geometry" />
        </mxCell>
        <mxCell id="YA6uBwkZ4y1gAaG25V1V-43" value="find_vulnerabilities" style="rounded=0;whiteSpace=wrap;html=1;" parent="1" vertex="1">
          <mxGeometry x="265" y="290" width="125" height="30" as="geometry" />
        </mxCell>
        <mxCell id="YA6uBwkZ4y1gAaG25V1V-44" value="send_result" style="rounded=0;whiteSpace=wrap;html=1;" parent="1" vertex="1">
          <mxGeometry x="265" y="340" width="125" height="30" as="geometry" />
        </mxCell>
        <mxCell id="YA6uBwkZ4y1gAaG25V1V-45" value="&lt;font style=&quot;font-size: 16px;&quot;&gt;&lt;b&gt;OSV&lt;/b&gt;&lt;/font&gt;" style="ellipse;shape=cloud;whiteSpace=wrap;html=1;" parent="1" vertex="1">
          <mxGeometry x="40" y="85" width="120" height="80" as="geometry" />
        </mxCell>
        <mxCell id="YA6uBwkZ4y1gAaG25V1V-52" value="" style="endArrow=classic;html=1;rounded=0;exitX=1;exitY=0.5;exitDx=0;exitDy=0;entryX=0;entryY=0.5;entryDx=0;entryDy=0;" parent="1" source="YA6uBwkZ4y1gAaG25V1V-44" target="YA6uBwkZ4y1gAaG25V1V-11" edge="1">
          <mxGeometry width="50" height="50" relative="1" as="geometry">
            <mxPoint x="460" y="175" as="sourcePoint" />
            <mxPoint x="650" y="355" as="targetPoint" />
          </mxGeometry>
        </mxCell>
        <mxCell id="YA6uBwkZ4y1gAaG25V1V-54" value="POST" style="edgeLabel;html=1;align=center;verticalAlign=middle;resizable=0;points=[];" parent="YA6uBwkZ4y1gAaG25V1V-52" vertex="1" connectable="0">
          <mxGeometry x="0.0296" relative="1" as="geometry">
            <mxPoint as="offset" />
          </mxGeometry>
        </mxCell>
        <mxCell id="YA6uBwkZ4y1gAaG25V1V-55" value="" style="endArrow=classic;startArrow=classic;html=1;rounded=0;entryX=1;entryY=0.5;entryDx=0;entryDy=0;exitX=0;exitY=0.5;exitDx=0;exitDy=0;" parent="1" source="YA6uBwkZ4y1gAaG25V1V-9" target="YA6uBwkZ4y1gAaG25V1V-30" edge="1">
          <mxGeometry width="50" height="50" relative="1" as="geometry">
            <mxPoint x="610" y="630" as="sourcePoint" />
            <mxPoint x="660" y="580" as="targetPoint" />
          </mxGeometry>
        </mxCell>
        <mxCell id="YA6uBwkZ4y1gAaG25V1V-56" value="GET" style="edgeLabel;html=1;align=center;verticalAlign=middle;resizable=0;points=[];" parent="YA6uBwkZ4y1gAaG25V1V-55" vertex="1" connectable="0">
          <mxGeometry x="0.0325" y="4" relative="1" as="geometry">
            <mxPoint as="offset" />
          </mxGeometry>
        </mxCell>
        <mxCell id="YA6uBwkZ4y1gAaG25V1V-58" value="" style="endArrow=classic;startArrow=classic;html=1;rounded=0;entryX=0.96;entryY=0.7;entryDx=0;entryDy=0;entryPerimeter=0;exitX=0;exitY=0.5;exitDx=0;exitDy=0;" parent="1" source="YA6uBwkZ4y1gAaG25V1V-40" target="YA6uBwkZ4y1gAaG25V1V-45" edge="1">
          <mxGeometry width="50" height="50" relative="1" as="geometry">
            <mxPoint x="180" y="550" as="sourcePoint" />
            <mxPoint x="230" y="500" as="targetPoint" />
          </mxGeometry>
        </mxCell>
        <mxCell id="YA6uBwkZ4y1gAaG25V1V-59" value="" style="endArrow=classic;startArrow=classic;html=1;rounded=0;entryX=0.717;entryY=0.9;entryDx=0;entryDy=0;entryPerimeter=0;exitX=0;exitY=0.5;exitDx=0;exitDy=0;" parent="1" source="YA6uBwkZ4y1gAaG25V1V-43" target="YA6uBwkZ4y1gAaG25V1V-45" edge="1">
          <mxGeometry width="50" height="50" relative="1" as="geometry">
            <mxPoint x="315" y="260" as="sourcePoint" />
            <mxPoint x="165" y="151" as="targetPoint" />
          </mxGeometry>
        </mxCell>
      </root>
    </mxGraphModel>
  </diagram>
</mxfile>
